# xmcd
#
# Track frame offsets:
#	180
#	21490
#	43255
#	65610
#	85986
#	90261
#	112809
#	156154
#	163273
#	176444
#	187839
#	203877
#	217944
#	235688
#	267573
#
# Disc length: 3682 seconds
#
# Revision: 0
# Processed by: cddbd v1.5.1PL0 Copyright (c) Steve Scherf et al.
# Submitted via: dBpowerAMP V4.0
#
DISCID=c70e600f
DTITLE=420 Blues - Please Step Away From The Groove
DYEAR=1997
DGENRE=Blues
TTITLE0=Twelve Pound Hammer
TTITLE1=Mudfoot
TTITLE2=Back In The Mix
TTITLE3=The Hustler
TTITLE4=The Coincidence (P.S.A.F.T.G.,Prt.1)
TTITLE5=The Sun
TTITLE6=So Long Undercover
TTITLE7=The Exchange (P.S.A.F.T.G.,Prt.2)
TTITLE8=Dead Inside
TTITLE9=The Ice Is Gonna Break! (P.S.A.F.T.G.,Prt.3)
TTITLE10=Man Of Many Words
TTITLE11=Messin' With The Kid
TTITLE12=Delta Woman
TTITLE13=Black Hearted Woman
TTITLE14=A Lesson Unlearned (P.S.A.F.T.G.,Prt.4)
EXTD=
EXTT0=
EXTT1=
EXTT2=
EXTT3=
EXTT4=
EXTT5=
EXTT6=
EXTT7=
EXTT8=
EXTT9=
EXTT10=
EXTT11=
EXTT12=
EXTT13=
EXTT14=
PLAYORDER=
